<svg width="215" height="32" viewBox="0 0 215 32" fill="none" xmlns="http://www.w3.org/2000/svg">
<path d="M10.06 31.99C8.73895 31.99 7.43109 31.73 6.21054 31.2245C4.98999 30.719 3.88098 29.9773 2.94683 29.0431C2.01267 28.109 1.27097 27 0.765438 25.7794C0.259911 24.5589 -7.50141e-05 23.251 1.62464e-08 21.9299V10.0578C-7.50366e-05 8.73677 0.259897 7.42879 0.765438 6.20831C1.27098 4.98782 2.01265 3.87866 2.94683 2.94459C3.881 2.01053 4.99 1.26973 6.21054 0.764323C7.43108 0.258921 8.739 -0.000224307 10.06 7.96504e-07H21.9321C23.2532 -0.000524735 24.561 0.259013 25.7817 0.764323C27.0023 1.26963 28.1112 2.01045 29.0454 2.94459C29.9795 3.87873 30.7203 4.98769 31.2256 6.20831C31.7309 7.42892 31.9905 8.73674 31.99 10.0578V31.99H10.06ZM4.58259 10.0578V21.9299C4.58531 23.3815 5.16259 24.7723 6.18934 25.7984C7.21608 26.8245 8.60847 27.4022 10.06 27.404H27.4063V10.0578C27.4044 8.60623 26.8267 7.21385 25.8006 6.18711C24.7745 5.16036 23.3837 4.58308 21.9321 4.58036H10.06C8.60787 4.58217 7.21506 5.15915 6.18822 6.18599C5.16138 7.21283 4.5844 8.60564 4.58259 10.0578ZM12.0562 22.9297C11.2617 22.9295 10.4991 22.6133 9.93731 22.0515C9.37551 21.4897 9.06044 20.7283 9.06029 19.9338V12.0551C9.06006 11.6616 9.13745 11.2717 9.28791 10.9081C9.43837 10.5444 9.65909 10.2134 9.93731 9.93508C10.2155 9.65675 10.5456 9.43628 10.9092 9.28568C11.2727 9.13508 11.6627 9.05798 12.0562 9.05806H19.9349C20.3285 9.05798 20.7183 9.13509 21.0819 9.28568C21.4456 9.43627 21.7755 9.65676 22.0538 9.93508C22.3321 10.2134 22.5526 10.5444 22.7032 10.9081C22.8538 11.2717 22.932 11.6615 22.9319 12.0551V22.9297H12.0562Z" fill="#00BFFF"/>
<path d="M43.936 15.7085C43.0532 15.1308 42.3549 14.3121 41.924 13.3497C41.289 13.2195 40.6835 12.9748 40.1366 12.6271C39.6007 12.272 39.1365 11.819 38.7676 11.2927C38.3742 10.7221 38.0814 10.0879 37.903 9.41835C37.6941 8.64685 37.5926 7.85042 37.6009 7.05124C37.5871 6.13973 37.7239 5.23285 38.0055 4.36574C38.2444 3.63379 38.634 2.96077 39.15 2.38899C39.6376 1.85031 40.2413 1.42893 40.9153 1.15698C42.3791 0.595957 43.9991 0.595957 45.4629 1.15698C46.1351 1.43617 46.7379 1.8596 47.2282 2.3973C47.7363 2.97578 48.1235 3.65131 48.3644 4.38235C48.6483 5.24325 48.7879 6.14486 48.7773 7.05124C48.836 8.48962 48.4656 9.91267 47.7131 11.1404C47.0595 12.1728 46.0425 12.926 44.8643 13.2528C45.1413 13.6741 45.5525 13.9899 46.031 14.1498C46.5222 14.3189 47.0384 14.4047 47.5579 14.4045C47.8087 14.4084 48.0597 14.3872 48.3062 14.3408C48.5142 14.3041 48.7186 14.251 48.9186 14.183L49.4119 16.2152C49.1269 16.3452 48.8274 16.4421 48.5196 16.5003C48.0984 16.5783 47.6731 16.6164 47.2448 16.6138C46.0763 16.6525 44.9219 16.3363 43.936 15.7085ZM41.1869 4.1664C40.6471 5.02813 40.3909 6.03639 40.4498 7.05124C40.3873 8.12604 40.6425 9.19522 41.1869 10.1243C41.4008 10.4601 41.6968 10.7357 42.046 10.9272C42.3952 11.1187 42.7866 11.2207 43.185 11.2207C43.5833 11.2207 43.9747 11.1187 44.3239 10.9272C44.6731 10.7357 44.9691 10.4601 45.183 10.1243C45.7274 9.19522 45.9853 8.12604 45.9229 7.05124C45.9818 6.03639 45.7228 5.02813 45.183 4.1664C44.9579 3.84587 44.6578 3.58292 44.3101 3.40228C43.9623 3.22165 43.5769 3.12819 43.185 3.12819C42.793 3.12819 42.4076 3.22165 42.0598 3.40228C41.7121 3.58292 41.412 3.84587 41.1869 4.1664ZM173.308 13.1504C172.761 12.9341 172.263 12.6103 171.845 12.198C171.406 11.7602 171.06 11.2385 170.828 10.6642C170.329 9.31924 170.329 7.83972 170.828 6.49476C171.06 5.92041 171.406 5.39873 171.845 4.96098C172.262 4.54683 172.76 4.2228 173.308 4.00859C174.407 3.56561 175.634 3.56561 176.733 4.00859C177.29 4.23483 177.796 4.57231 178.218 4.99974C178.641 5.42717 178.972 5.93548 179.191 6.49476C179.697 7.83841 179.697 9.32055 179.191 10.6642C178.967 11.2414 178.622 11.7643 178.18 12.198C177.764 12.6065 177.273 12.9299 176.733 13.1504C175.634 13.5934 174.407 13.5934 173.308 13.1504ZM173.735 6.63872C173.457 7.2481 173.313 7.91 173.313 8.57948C173.313 9.24895 173.457 9.91086 173.735 10.5202C173.87 10.7395 174.058 10.9207 174.283 11.0463C174.509 11.1718 174.763 11.2373 175.02 11.2373C175.278 11.2373 175.532 11.1718 175.758 11.0463C175.983 10.9207 176.174 10.7395 176.309 10.5202C176.597 9.91383 176.747 9.25076 176.747 8.57948C176.747 7.9082 176.597 7.24513 176.309 6.63872C176.174 6.41949 175.983 6.23821 175.758 6.1127C175.532 5.98718 175.278 5.92167 175.02 5.92167C174.763 5.92167 174.509 5.98718 174.283 6.1127C174.058 6.23821 173.87 6.41949 173.735 6.63872ZM166.468 13.214C166.081 13.0543 165.738 12.8039 165.468 12.4831C165.198 12.1473 165.004 11.7576 164.9 11.3397C164.775 10.857 164.713 10.36 164.717 9.86132V6.07394H163.44V4.0169L164.869 3.90616L165.196 1.41169H167.494V3.90616H169.744V6.07394H167.494V9.82256C167.454 10.2327 167.575 10.6418 167.829 10.966C167.942 11.0821 168.078 11.1717 168.228 11.2318C168.379 11.2918 168.54 11.3212 168.702 11.3148C168.86 11.3125 169.017 11.2939 169.17 11.2594C169.315 11.2211 169.456 11.1743 169.594 11.1182L170.035 13.1365C169.78 13.2088 169.486 13.2883 169.145 13.3663C168.753 13.444 168.351 13.4812 167.951 13.4771C167.442 13.4957 166.935 13.4056 166.463 13.214H166.468ZM155.927 13.2694C155.601 13.1283 155.306 12.9212 155.062 12.6631C154.818 12.405 154.63 12.1021 154.508 11.7689C154.371 11.414 154.304 11.0361 154.308 10.6559C154.295 10.1963 154.403 9.7397 154.621 9.33529C154.84 8.93089 155.163 8.593 155.555 8.35246C156.79 7.67861 158.165 7.29849 159.571 7.24227C159.565 6.87809 159.43 6.52836 159.194 6.25112C159.047 6.11762 158.873 6.01507 158.684 5.95212C158.495 5.88917 158.298 5.86468 158.099 5.88291C157.686 5.8861 157.274 5.96405 156.888 6.1127C156.443 6.28353 156.016 6.49326 155.605 6.73562L154.627 4.90838C155.225 4.54334 155.862 4.24535 156.525 4.01967C157.201 3.78883 157.912 3.67348 158.626 3.67914C159.133 3.64464 159.64 3.71841 160.117 3.89508C160.594 4.07176 161.027 4.34683 161.389 4.7035C162.096 5.61373 162.439 6.75546 162.345 7.90395V13.2556H160.073L159.867 12.2949H159.812C159.426 12.6361 158.996 12.9224 158.534 13.1504C158.079 13.3734 157.578 13.4875 157.071 13.4826C156.678 13.4897 156.286 13.4177 155.921 13.2694H155.927ZM157.509 9.50418C157.343 9.5999 157.204 9.73597 157.105 9.90008C157.005 10.0642 156.948 10.2511 156.941 10.4427C156.93 10.5712 156.95 10.7011 157.002 10.8192C157.054 10.9374 157.135 11.0393 157.238 11.1182C157.468 11.2701 157.741 11.3452 158.016 11.3314C158.308 11.3399 158.596 11.2676 158.85 11.1238C159.109 10.9569 159.347 10.7598 159.56 10.5368V8.90063C158.839 8.95023 158.137 9.15689 157.504 9.50418H157.509ZM140.973 13.1504C140.403 12.9356 139.883 12.6032 139.452 12.1731C139.02 11.7429 138.687 11.2253 138.471 10.6559C138.221 9.99149 138.1 9.2862 138.113 8.57671C138.102 7.87777 138.228 7.18289 138.487 6.53352C138.715 5.95803 139.051 5.43256 139.48 4.98589C139.876 4.56887 140.356 4.23929 140.887 4.0169C141.403 3.79055 141.962 3.67433 142.525 3.67637C143.126 3.66193 143.723 3.77834 144.274 4.0169C144.756 4.23281 145.182 4.55569 145.521 4.96098C145.861 5.37831 146.111 5.86065 146.258 6.37848C146.427 6.95564 146.513 7.55447 146.507 8.15589C146.511 8.38709 146.498 8.61589 146.469 8.84526C146.443 9.05222 146.419 9.21346 146.396 9.33253H140.79C140.857 9.93777 141.157 10.4929 141.627 10.8801C142.091 11.2136 142.652 11.3838 143.223 11.3646C143.941 11.3506 144.641 11.1372 145.244 10.7473L146.166 12.4222C145.676 12.7542 145.14 13.0134 144.576 13.1919C144.019 13.3771 143.436 13.4716 142.849 13.4743C142.208 13.4822 141.569 13.3728 140.968 13.1504H140.973ZM141.419 6.23174C141.05 6.60673 140.82 7.09771 140.768 7.62156H144.146C144.167 7.153 144.042 6.68734 143.789 6.29265C143.645 6.11513 143.457 5.97675 143.246 5.88844C143.035 5.80014 142.805 5.76683 142.578 5.78878C142.147 5.78535 141.733 5.94302 141.414 6.23174H141.419ZM121.367 13.1504C120.794 12.9375 120.276 12.6034 119.843 12.1731C119.409 11.7428 119.072 11.2266 118.856 10.6559C118.607 9.99149 118.485 9.2862 118.499 8.57671C118.491 7.87811 118.618 7.18401 118.873 6.53352C119.103 5.95964 119.442 5.43474 119.868 4.98589C120.266 4.57066 120.745 4.24135 121.275 4.0169C121.791 3.79055 122.35 3.67433 122.913 3.67637C123.514 3.66092 124.108 3.77738 124.659 4.0169C125.144 4.22844 125.571 4.55203 125.906 4.96098C126.249 5.37778 126.504 5.86011 126.654 6.37848C126.817 6.95692 126.897 7.55515 126.893 8.15589C126.895 8.38683 126.884 8.61536 126.862 8.84526C126.829 9.05222 126.813 9.21346 126.782 9.33253H121.178C121.21 9.63329 121.303 9.92513 121.447 10.1908C121.592 10.4564 121.785 10.6903 122.021 10.8801C122.481 11.2139 123.04 11.3842 123.609 11.3646C124.327 11.3506 125.029 11.1372 125.632 10.7473L126.56 12.4222C126.067 12.7548 125.529 13.014 124.961 13.1919C124.405 13.3768 123.823 13.4714 123.237 13.4743C122.598 13.4822 121.963 13.3728 121.364 13.1504H121.367ZM121.813 6.23174C121.435 6.60091 121.204 7.09508 121.162 7.62156H124.54C124.561 7.153 124.436 6.68734 124.182 6.29265C124.037 6.11628 123.853 5.97941 123.642 5.89121C123.431 5.80302 123.202 5.76834 122.974 5.78878C122.544 5.78273 122.127 5.94078 121.81 6.23174H121.813ZM110.65 13.0784C109.942 12.8183 109.297 12.4098 108.76 11.8796C108.198 11.3219 107.764 10.6471 107.486 9.90562C107.166 9.03439 107.01 8.11185 107.026 7.18413C107.007 6.25301 107.172 5.32754 107.511 4.45987C107.8 3.70136 108.243 3.01154 108.813 2.43329C109.355 1.87548 110.012 1.43988 110.736 1.15698C111.484 0.870261 112.277 0.727685 113.078 0.733395C113.86 0.711144 114.635 0.880018 115.337 1.2262C115.915 1.50783 116.445 1.88413 116.9 2.33916L115.375 4.05289C115.094 3.77737 114.772 3.5471 114.419 3.37183C114.012 3.19419 113.57 3.11016 113.125 3.12543C112.672 3.12348 112.224 3.21912 111.812 3.40782C111.418 3.59075 111.066 3.85868 110.783 4.18855C110.477 4.55432 110.25 4.97931 110.116 5.43717C109.951 5.97429 109.87 6.5337 109.877 7.09553C109.812 8.14989 110.116 9.1942 110.736 10.0496C111.06 10.4089 111.462 10.6887 111.911 10.8691C112.36 11.0494 112.845 11.1233 113.327 11.0878C113.577 11.0891 113.826 11.0598 114.067 10.9964C114.281 10.9448 114.481 10.8465 114.655 10.7113V8.59886H112.612V6.33141H117.105V11.9848C116.6 12.4445 116.012 12.8036 115.373 13.0424C114.615 13.3374 113.808 13.4846 112.995 13.4771C112.195 13.4862 111.399 13.3518 110.648 13.0784H110.65ZM97.6229 13.1504C97.0506 12.9369 96.5321 12.6033 96.0987 12.1731C95.6654 11.7429 95.3267 11.2263 95.1094 10.6559C94.8599 9.99149 94.7387 9.2862 94.7519 8.57671C94.7429 7.8772 94.8752 7.18229 95.1371 6.53352C95.3642 5.9579 95.7005 5.43238 96.1292 4.98589C96.5267 4.57073 97.005 4.24141 97.5342 4.0169C98.0704 3.79192 98.6459 3.6736 99.2275 3.6736C99.809 3.6736 100.385 3.79192 100.921 4.0169C101.406 4.22908 101.834 4.55253 102.171 4.96098C102.512 5.37865 102.766 5.86076 102.916 6.37848C103.083 6.95622 103.165 7.55465 103.163 8.15589C103.164 8.38703 103.15 8.61565 103.124 8.84526C103.094 9.05222 103.069 9.21346 103.052 9.33253H97.44C97.5048 9.9396 97.8075 10.496 98.2825 10.8801C98.7437 11.2145 99.3037 11.3848 99.8732 11.3646C100.593 11.3498 101.294 11.1365 101.899 10.7473L102.822 12.4222C102.33 12.7569 101.791 13.0163 101.223 13.1919C100.667 13.3777 100.085 13.4723 99.499 13.4743C98.8577 13.4835 98.2213 13.3741 97.6202 13.1504H97.6229ZM98.0663 6.23174C97.6924 6.60384 97.4618 7.09639 97.4151 7.62156H100.793C100.814 7.153 100.689 6.68734 100.436 6.29265C100.291 6.11552 100.106 5.97671 99.8953 5.88844C99.6845 5.80018 99.4551 5.76734 99.2275 5.78878C98.797 5.78422 98.3817 5.94204 98.0635 6.23174H98.0663ZM86.6295 13.1421C86.1578 12.9151 85.745 12.584 85.4212 12.1731C85.0692 11.715 84.807 11.1946 84.648 10.6393C84.4533 9.96931 84.356 9.27435 84.3626 8.57671C84.3515 7.8788 84.4644 7.18405 84.6952 6.52521C84.8889 5.96406 85.183 5.44262 85.5625 4.98589C85.9024 4.57558 86.328 4.24521 86.8096 4.0169C87.2573 3.79364 87.7502 3.67686 88.2506 3.67637C88.7003 3.65704 89.1477 3.74695 89.5531 3.94215C89.9181 4.1319 90.2556 4.37033 90.5563 4.6509L90.4427 3.21402V0.0301819H93.2167V13.2445H90.947L90.7558 12.3226H90.6838C90.3446 12.6537 89.9552 12.9303 89.5309 13.1421C89.1163 13.3564 88.6565 13.4705 88.1897 13.4743C87.6498 13.4846 87.1154 13.3715 86.6267 13.1421H86.6295ZM87.7324 6.57505C87.3467 7.15577 87.1677 7.84895 87.2253 8.54349C87.1699 9.24893 87.3207 9.95466 87.6604 10.5756C87.7976 10.7815 87.986 10.95 88.2063 11.0629C88.4266 11.1758 88.6738 11.2295 88.9213 11.2207C89.208 11.2244 89.4913 11.1591 89.7471 11.0296C90.0324 10.869 90.2755 10.6433 90.4565 10.3707V6.54182C90.2316 6.33433 89.964 6.17779 89.675 6.07671C89.4278 5.9872 89.1675 5.93709 88.9046 5.93274C88.6721 5.94004 88.4466 6.00141 88.2423 6.1127C88.038 6.22399 87.8618 6.38368 87.7296 6.57505H87.7324ZM77.066 13.1504C76.5204 12.9321 76.0229 12.6086 75.6028 12.198C75.1657 11.7599 74.8218 11.2382 74.5913 10.6642C74.0963 9.31857 74.0963 7.84038 74.5913 6.49476C74.8218 5.92074 75.1657 5.39905 75.6028 4.96098C76.0214 4.54859 76.5193 4.22481 77.066 4.00859C77.6112 3.78922 78.1936 3.67608 78.7814 3.67637C79.3674 3.67477 79.9483 3.78797 80.4912 4.00859C81.0353 4.22499 81.5305 4.54881 81.9461 4.96098C82.3849 5.397 82.7284 5.9193 82.9548 6.49476C83.4646 7.83772 83.4646 9.32124 82.9548 10.6642C82.6231 11.4983 82.0475 12.2131 81.3032 12.7157C80.5589 13.2183 79.6798 13.4859 78.7814 13.4826C78.1931 13.4831 77.6089 13.3699 77.0632 13.1504H77.066ZM77.49 6.63872C77.207 7.24661 77.0604 7.9091 77.0604 8.57948C77.0604 9.24986 77.207 9.91235 77.49 10.5202C77.6162 10.7475 77.8032 10.9334 78.0304 11.0601C78.2575 11.1868 78.516 11.2491 78.7758 11.2373C79.0357 11.2472 79.2941 11.1838 79.5213 11.0573C79.7485 10.9308 79.9361 10.7463 80.0644 10.5202C80.3474 9.91235 80.494 9.24986 80.494 8.57948C80.494 7.9091 80.3474 7.24661 80.0644 6.63872C79.9361 6.41268 79.7485 6.22535 79.5213 6.09885C79.2941 5.97236 79.0357 5.91176 78.7758 5.92167C78.5162 5.91013 78.26 5.96938 78.0331 6.09609C77.8063 6.22279 77.6189 6.41172 77.4927 6.63872H77.49ZM67.6299 13.0784C66.9354 12.8168 66.3077 12.4081 65.7871 11.8796C65.2361 11.3181 64.8111 10.6438 64.54 9.90562C64.2225 9.03401 64.0682 8.1115 64.0855 7.18413C64.0701 6.254 64.2318 5.3296 64.5622 4.45987C64.843 3.70328 65.2784 3.01352 65.8397 2.43329C66.3644 1.88042 67.0015 1.44497 67.7075 1.15698C68.4233 0.871867 69.1873 0.729136 69.9578 0.733395C70.6833 0.724408 71.4 0.887556 72.05 1.20959C72.626 1.50448 73.152 1.88539 73.6102 2.34193L72.075 4.05566C71.7918 3.78393 71.4708 3.55684 71.1217 3.37736C70.7732 3.20818 70.3895 3.12391 70.0021 3.13096C69.5845 3.13108 69.1731 3.22702 68.7994 3.41336C68.4259 3.60352 68.0961 3.86817 67.8295 4.19132C67.5376 4.56421 67.3169 4.98732 67.1782 5.43994C67.0131 5.97706 66.9328 6.53647 66.9399 7.0983C66.8734 8.14707 67.1624 9.18764 67.7602 10.0524C68.0102 10.3865 68.3346 10.6547 68.7107 10.8359C69.0869 11.017 69.5016 11.1062 69.919 11.0933C70.3801 11.1068 70.8392 11.003 71.2492 10.7916C71.6302 10.5885 71.9739 10.3229 72.2662 10.0053L73.7931 11.6803C73.3199 12.2553 72.7232 12.718 72.0473 13.0313C71.3713 13.3447 70.6336 13.5012 69.8885 13.4909C69.1177 13.4957 68.3517 13.3557 67.6327 13.0784H67.6299ZM181.098 13.2528V3.90616H183.367L183.559 5.54237H183.628C183.908 4.97027 184.333 4.4815 184.861 4.12487C185.285 3.84027 185.781 3.68324 186.291 3.6736C186.51 3.66904 186.729 3.68498 186.945 3.72067C187.103 3.74956 187.258 3.79659 187.405 3.86186L186.951 6.2622C186.789 6.2136 186.626 6.17387 186.46 6.14315C186.286 6.11836 186.11 6.10684 185.934 6.10993C185.537 6.12185 185.152 6.25173 184.831 6.48368C184.384 6.82456 184.051 7.29287 183.875 7.82643V13.25L181.098 13.2528ZM148.051 13.2528V3.90616H150.321L150.512 5.54237H150.584C150.861 4.97225 151.283 4.48383 151.806 4.12487C152.234 3.84045 152.733 3.68354 153.247 3.6736C153.465 3.66936 153.683 3.68531 153.898 3.72067C154.056 3.75075 154.211 3.79774 154.358 3.86186L153.907 6.2622C153.723 6.20692 153.564 6.17434 153.413 6.14315C153.239 6.11836 153.063 6.10684 152.887 6.10993C152.49 6.12054 152.105 6.25055 151.784 6.48368C151.337 6.82456 151.004 7.29287 150.828 7.82643V13.25L148.051 13.2528ZM133.89 13.2528V7.80428C133.936 7.32511 133.845 6.84218 133.624 6.41447C133.521 6.28407 133.386 6.18173 133.233 6.11547C133.08 6.0492 132.914 6.02164 132.748 6.03518C132.429 6.02374 132.114 6.10653 131.842 6.27327C131.54 6.46419 131.258 6.6877 131.005 6.94049V13.2528H128.234V3.90616H130.504L130.695 5.08833H130.767C131.171 4.71284 131.613 4.37865 132.086 4.09442C132.599 3.80367 133.181 3.65841 133.771 3.67083C134.194 3.63404 134.622 3.70624 135.01 3.88124C135.397 4.05624 135.733 4.32828 135.985 4.67028C136.49 5.50322 136.728 6.46948 136.672 7.4416V13.2528H133.89ZM57.091 13.2528L54.7382 8.82034H53.2085V13.2528H50.4345V0.960416H54.8768C55.4942 0.957741 56.1101 1.02068 56.7141 1.14868C57.2522 1.25931 57.7624 1.47596 58.2161 1.78545C58.647 2.08672 58.9963 2.49014 59.2331 2.95931C59.5019 3.52987 59.6326 4.1564 59.61 4.78656C59.6455 5.57645 59.4376 6.3583 59.0142 7.02632C58.6214 7.60753 58.069 8.06295 57.4235 8.33861L60.2141 13.2528H57.091ZM53.2029 6.62211H54.644C55.2383 6.66212 55.828 6.49687 56.315 6.15422C56.5097 5.98609 56.6627 5.77431 56.7612 5.53684C56.8597 5.29936 56.9016 5.04296 56.8831 4.78656C56.9091 4.54467 56.8692 4.29974 56.7695 4.07781C56.6698 3.85588 56.5132 3.66269 56.315 3.52133C55.8008 3.25243 55.2233 3.12898 54.644 3.16419H53.2085L53.2029 6.62211Z" fill="#1B294B"/>
<path fill-rule="evenodd" clip-rule="evenodd" d="M37.4401 20.753V27.2471H38.6013V24.8H39.5129C40.2528 24.8 40.8995 24.6461 41.3652 24.3043C41.8384 23.9572 42.1066 23.4294 42.1066 22.7295C42.1066 22.0058 41.8353 21.4975 41.3495 21.1792C40.8763 20.869 40.2202 20.753 39.4729 20.753H37.4401ZM38.6013 23.84V21.713H39.3727C39.9427 21.713 40.3365 21.7867 40.5852 21.9445C40.817 22.0917 40.9453 22.3272 40.9453 22.7295C40.9453 23.1308 40.8213 23.3941 40.5918 23.5645C40.3523 23.7424 39.9707 23.84 39.4128 23.84H38.6013Z" fill="#53678C"/>
<path fill-rule="evenodd" clip-rule="evenodd" d="M48.8029 20.753L50.2671 27.2471H51.5509L52.5332 23.3996L52.5342 23.3952C52.5518 23.3167 52.5693 23.2398 52.5865 23.1637C52.6252 22.9931 52.6629 22.8266 52.7001 22.6563C52.7483 22.9021 52.8005 23.1411 52.8636 23.3982L53.8668 27.2471H55.1604L56.6035 20.753H55.4628L54.7351 24.2403L54.7013 24.4283C54.6344 24.8 54.5676 25.1707 54.5028 25.5484C54.4271 25.2191 54.3477 24.8953 54.2693 24.5758C54.2413 24.4617 54.2135 24.3482 54.186 24.2352L53.2623 20.753H52.1856L51.2421 24.2311L51.241 24.2357C51.1378 24.6658 51.0386 25.0929 50.9462 25.5291C50.8713 25.0964 50.7959 24.6713 50.7124 24.2424L50.0051 20.753H48.8029Z" fill="#53678C"/>
<path fill-rule="evenodd" clip-rule="evenodd" d="M57.287 20.753V27.2471H61.4928V26.2589H58.4482V24.3389H60.932V23.3506H58.4482V21.7412H61.3927V20.753H57.287Z" fill="#53678C"/>
<path fill-rule="evenodd" clip-rule="evenodd" d="M62.4682 20.753V27.2471H63.6294V24.64H64.5612L66.1435 27.2471H67.4728L65.7608 24.4917C66.1384 24.3706 66.4621 24.1798 66.7024 23.91C66.9881 23.589 67.1447 23.1686 67.1447 22.6542C67.1447 21.9633 66.8834 21.4748 66.4254 21.1672C65.9788 20.8672 65.3652 20.753 64.6813 20.753H62.4682ZM63.6294 23.68V21.713H64.5611C65.0631 21.713 65.42 21.7859 65.6481 21.9342C65.8618 22.0731 65.9834 22.2922 65.9834 22.6542C65.9834 23.0072 65.861 23.2521 65.6403 23.4148C65.4114 23.5837 65.0553 23.68 64.5611 23.68H63.6294Z" fill="#53678C"/>
<path fill-rule="evenodd" clip-rule="evenodd" d="M68.0797 20.753V27.2471H72.2855V26.2589H69.241V24.3389H71.7247V23.3506H69.241V21.7412H72.1854V20.753H68.0797Z" fill="#53678C"/>
<path fill-rule="evenodd" clip-rule="evenodd" d="M73.2609 20.753V27.2471H75.1034C76.1257 27.2471 76.938 26.9505 77.494 26.3787C78.0494 25.8075 78.328 24.9838 78.328 23.9718C78.328 22.9643 78.0492 22.1534 77.4871 21.5948C76.9251 21.0363 76.103 20.753 75.0634 20.753H73.2609ZM74.4222 26.2777V21.7224H75.0033C75.74 21.7224 76.265 21.9276 76.6078 22.294C76.9522 22.6624 77.1367 23.2192 77.1367 23.9718C77.1367 24.7293 76.9521 25.3015 76.6061 25.6832C76.2625 26.0622 75.7375 26.2777 75.0033 26.2777H74.4222Z" fill="#53678C"/>
<path fill-rule="evenodd" clip-rule="evenodd" d="M81.2369 20.753V27.2471H83.5001C84.2494 27.2471 84.9062 27.0957 85.3806 26.7709C85.8629 26.4407 86.1438 25.9393 86.1438 25.28C86.1438 24.8193 85.9928 24.4443 85.7263 24.1659C85.5481 23.9797 85.3232 23.8418 85.0685 23.7488C85.5223 23.4626 85.7732 22.9602 85.7732 22.4189C85.7732 21.8218 85.5112 21.3933 85.0638 21.1231C84.6281 20.86 84.028 20.753 83.3498 20.753H81.2369ZM82.3982 23.3789V21.7036H83.2397C83.7435 21.7036 84.0923 21.7699 84.3114 21.9018C84.5136 22.0236 84.622 22.2115 84.622 22.5224C84.622 22.793 84.5265 22.9942 84.3218 23.1354C84.1066 23.2839 83.7518 23.3789 83.2096 23.3789H82.3982ZM82.3982 26.2965V24.3012H83.3799C83.9396 24.3012 84.3479 24.3875 84.6113 24.5474C84.862 24.6996 84.9925 24.9242 84.9925 25.2518C84.9925 25.6165 84.8534 25.8651 84.5994 26.0307C84.3343 26.2037 83.9276 26.2965 83.3799 26.2965H82.3982Z" fill="#53678C"/>
<path fill-rule="evenodd" clip-rule="evenodd" d="M85.8723 20.753L87.9492 24.7357V27.2471H89.1104V24.7359L91.1979 20.753H89.9517L89.0667 22.5845L89.0645 22.5893C88.9412 22.8675 88.8085 23.1342 88.672 23.4085C88.6279 23.497 88.5835 23.5863 88.5388 23.677C88.3749 23.341 88.2234 23.0155 88.0672 22.6798L88.0239 22.5866L87.1379 20.753H85.8723Z" fill="#53678C"/>
<path fill-rule="evenodd" clip-rule="evenodd" d="M45.6059 27.36C46.4745 27.36 47.2227 27.0323 47.7522 26.437C48.2804 25.8431 48.5801 24.9955 48.5801 23.9718C48.5801 22.9571 48.2801 22.123 47.7511 21.5407C47.221 20.9572 46.4729 20.64 45.6059 20.64C44.7392 20.64 43.9934 20.9546 43.4655 21.5373C42.9389 22.1187 42.6417 22.9529 42.6417 23.9718C42.6417 24.9952 42.9387 25.8427 43.4643 26.4367C43.9913 27.0323 44.7372 27.36 45.6059 27.36ZM45.6059 26.3436C45.0699 26.3436 44.6336 26.1198 44.3271 25.7193C44.0174 25.3147 43.833 24.7192 43.833 23.9718C43.833 23.2294 44.0173 22.649 44.3257 22.2579C44.6309 21.8708 45.0671 21.6565 45.6059 21.6565C46.1448 21.6565 46.5837 21.871 46.8915 22.2584C47.2022 22.6496 47.3888 23.2298 47.3888 23.9718C47.3888 24.7187 47.2021 25.3141 46.89 25.7188C46.581 26.1197 46.142 26.3436 45.6059 26.3436Z" fill="#53678C"/>
<g clip-path="url(#clip0_2510_149214)">
<path fill-rule="evenodd" clip-rule="evenodd" d="M97.8528 25.7621C97.0644 25.7759 96.5615 25.4645 96.5264 24.7781C96.5132 24.5205 96.5174 24.2999 96.5299 24.1345C96.6062 23.1314 97.2382 22.4817 97.9331 22.3432C98.7975 22.1709 99.3733 22.5647 99.3733 23.6921C99.3733 24.4539 99.161 25.7392 97.8528 25.7621ZM104.62 27.3262C103.684 27.3262 102.701 26.7506 102.654 25.6736C101.59 26.8001 99.9484 27.3368 97.8528 27.3368C95.7391 27.3368 94.8564 25.8958 94.8564 24.7733C94.9098 21.0313 94.8244 19.6295 94.8069 19.3418L94.8069 19.3417C94.8053 19.3163 94.8043 19.2996 94.8039 19.2907L94.8036 19.281C94.7982 19.1386 94.7901 18.926 94.6548 18.9115C94.5707 18.9025 94.5164 18.9282 94.4198 19.0485C94.275 19.241 93.9824 19.3172 93.8045 19.2143C93.5895 19.09 93.5494 18.8154 93.6582 18.5628C93.9601 17.8891 94.4441 17.591 95.0963 17.6003C96.2231 17.6163 96.5464 18.3523 96.5464 19.2718C96.5464 19.2718 96.5214 20.5963 96.5214 21.3421C96.92 21.0173 97.5057 20.6689 98.4839 20.6689C100.521 20.6689 101.814 23.1906 100.485 25.6033C102.189 24.8177 102.544 23.4644 102.61 22.1209L102.604 21.6682C102.604 21.1597 102.932 20.729 103.442 20.729C103.953 20.729 104.292 21.1889 104.274 21.6744C104.213 23.3094 104.188 24.3856 104.188 24.955C104.188 25.2846 104.368 25.7896 104.9 25.7896C105.942 25.7896 106.285 24.973 106.365 23.0536L106.373 21.7397C105.901 21.7397 105.668 21.4916 105.668 21.1816C105.668 20.8715 105.915 20.5846 106.319 20.5846C106.319 20.5846 106.32 19.5064 106.32 19.0598C106.32 18.5512 106.714 18.1295 107.225 18.1295C107.736 18.1295 108.141 18.5512 108.141 19.0598C108.141 19.2285 108.135 19.4253 108.127 19.6426C108.118 19.9205 108.108 20.2322 108.109 20.5618L108.183 20.5615C108.321 20.561 108.635 20.5599 109.051 20.5551C109.548 20.5492 109.75 20.8266 109.75 21.1738C109.75 21.5211 109.483 21.7634 109.134 21.7649C108.811 21.7662 108.097 21.7622 108.097 21.7622C108.065 22.7907 108.034 24.0306 108.034 25.0228C108.034 25.3806 108.281 25.7896 108.879 25.7896C110.085 25.7896 110.535 24.7181 110.626 22.6844C110.619 21.2689 110.602 20.4488 110.589 19.8308V19.8307C110.58 19.3972 110.573 19.0632 110.573 18.6929C110.573 18.1844 110.997 17.7298 111.507 17.7298C112.018 17.7298 112.394 18.1379 112.394 18.6465C112.394 19.0382 112.379 19.4962 112.357 20.1208C112.321 21.1771 112.268 22.71 112.248 25.2054C112.245 25.5376 112.407 25.7716 112.837 25.7716C113.987 25.7716 114.306 24.526 114.407 22.7864C114.408 22.7026 114.408 22.6207 114.409 22.5402V22.54V22.5399V22.5397C114.411 22.3748 114.412 22.216 114.412 22.0605C114.412 21.5519 114.751 21.1403 115.262 21.1403C115.772 21.1403 116.072 21.562 116.072 22.0706C116.072 22.4328 116.061 22.7717 116.048 23.1212L116.048 23.1213C116.038 23.43 116.027 23.747 116.023 24.0958C116.014 24.9936 116.321 25.7845 117.068 25.7823C117.785 25.7802 118.573 25.4782 118.592 23.9405C118.598 23.513 118.591 23.1846 118.585 22.8532C118.581 22.6078 118.576 22.3607 118.576 22.0706C118.576 21.562 118.931 21.1403 119.441 21.1403C119.952 21.1403 120.306 21.562 120.306 22.0706C120.306 22.3746 120.295 22.6774 120.283 23.013V23.0131V23.0131V23.0132C120.268 23.4305 120.251 23.8986 120.251 24.4829C120.251 24.4829 120.219 26.6127 120.294 27.0841C120.528 27.0061 120.866 26.7771 121.224 26.2222C121.44 25.8872 121.854 25.8154 122.108 25.9637C122.459 26.168 122.446 26.5672 122.315 26.8588C121.977 27.6115 121.537 28.0723 120.424 28.4536C120.428 29.7304 120.339 31.6142 117.978 31.9546C115.956 32.2462 115.042 31.0737 115.039 30.0761C115.034 28.5008 116.608 28.042 118.881 27.4698L118.808 26.6891C118.808 26.6891 118.302 27.3528 117.019 27.3207C116.03 27.296 115.35 26.8289 114.937 26.1691C114.461 26.9511 113.715 27.3294 112.59 27.3294C111.85 27.3294 111.144 26.9383 110.795 26.3712C110.279 26.9877 109.561 27.3213 108.595 27.3213C107.753 27.3213 107.131 27.0307 106.759 26.5771C106.278 27.1141 105.586 27.3262 104.62 27.3262ZM119.029 28.7267C117.881 28.9746 116.442 29.3367 116.459 30.044C116.474 30.7072 117.159 30.8279 117.73 30.71C118.916 30.4649 119.053 29.7514 119.029 28.7267ZM104.373 19.0624C104.373 18.549 103.957 18.1339 103.441 18.1339C102.926 18.1339 102.509 18.549 102.509 19.0624C102.509 19.5758 102.926 19.9909 103.441 19.9909C103.957 19.9909 104.373 19.5758 104.373 19.0624Z" fill="#FF6116"/>
</g>
<path d="M192.714 11.9971C192.259 11.9971 191.824 11.8164 191.502 11.495C191.181 11.1735 191 10.7377 191 10.2832V1.71387C191 1.25932 191.181 0.823522 191.502 0.502109C191.824 0.180697 192.259 0 192.714 0H213.28C213.735 0 214.171 0.180697 214.492 0.502109C214.813 0.823522 214.994 1.25932 214.994 1.71387V10.2832C214.994 10.7377 214.813 11.1735 214.492 11.495C214.171 11.8164 213.735 11.9971 213.28 11.9971H192.714ZM207.482 3.11475C207.155 3.24673 206.862 3.44994 206.625 3.70975C206.376 3.98669 206.188 4.31295 206.073 4.66711C205.809 5.51737 205.809 6.42781 206.073 7.27807C206.19 7.63796 206.377 7.97092 206.625 8.25719C206.861 8.52327 207.154 8.7343 207.482 8.87395C208.188 9.16073 208.978 9.16073 209.683 8.87395C210.011 8.73484 210.304 8.5243 210.54 8.25802C210.788 7.9717 210.977 7.63881 211.094 7.27891C211.231 6.85719 211.297 6.41586 211.29 5.97259C211.297 5.53325 211.231 5.09559 211.094 4.67799C210.978 4.32253 210.789 3.99488 210.54 3.71561C210.304 3.45326 210.011 3.24797 209.683 3.11559C208.975 2.84218 208.19 2.84218 207.482 3.11559V3.11475ZM202.614 6.8312L203.758 8.97855H205.266L203.914 6.59353C204.227 6.46063 204.495 6.2396 204.685 5.95753C204.888 5.63356 204.989 5.25582 204.974 4.87381C204.983 4.56803 204.92 4.26419 204.79 3.98758C204.675 3.75876 204.505 3.56244 204.295 3.41685C204.076 3.26766 203.83 3.16359 203.57 3.11057C203.277 3.04903 202.978 3.01875 202.679 3.02019H200.529V8.97939H201.875V6.83203L202.614 6.8312ZM194.99 8.97855H196.335V6.95756H197.166C197.469 6.9591 197.77 6.9204 198.062 6.84124C198.33 6.76724 198.582 6.64241 198.803 6.47386C199.019 6.30606 199.193 6.09007 199.312 5.84288C199.442 5.55963 199.506 5.25006 199.498 4.93825C199.507 4.62576 199.445 4.31528 199.317 4.03026C199.202 3.7935 199.031 3.58928 198.817 3.4361C198.594 3.28057 198.343 3.17154 198.077 3.11559C197.778 3.04986 197.473 3.01796 197.167 3.02019H194.991L194.99 8.97855ZM207.613 7.40193C207.355 6.97118 207.231 6.47332 207.257 5.97175C207.229 5.47947 207.353 4.99073 207.613 4.57171C207.723 4.41679 207.869 4.29069 208.037 4.20349C208.206 4.11629 208.393 4.07043 208.583 4.07043C208.773 4.07043 208.96 4.11629 209.129 4.20349C209.297 4.29069 209.442 4.41679 209.552 4.57171C209.812 4.99083 209.936 5.47956 209.908 5.97175C209.934 6.47323 209.81 6.97109 209.552 7.40193C209.447 7.56328 209.304 7.69595 209.135 7.78772C208.965 7.87949 208.776 7.92747 208.583 7.92747C208.39 7.92747 208.201 7.87949 208.032 7.78772C207.862 7.69595 207.718 7.56328 207.613 7.40193ZM196.335 5.88807V4.08884H197.085C197.37 4.07028 197.655 4.13765 197.901 4.28216C198 4.35915 198.077 4.45936 198.126 4.57422C198.175 4.68907 198.194 4.81492 198.181 4.93908C198.181 5.57407 197.816 5.88974 197.085 5.88974L196.335 5.88807ZM201.875 5.76003V4.08633H202.569C202.849 4.07019 203.129 4.13041 203.379 4.2604C203.475 4.32899 203.551 4.42159 203.6 4.52903C203.648 4.63646 203.667 4.75481 203.656 4.87213C203.664 4.99665 203.643 5.12098 203.595 5.23616C203.547 5.35135 203.473 5.45417 203.379 5.53576C203.142 5.70071 202.856 5.77996 202.569 5.76003H201.875Z" fill="#00BFFF"/>
<defs>
<clipPath id="clip0_2510_149214">
<rect width="28.8" height="14.4" fill="white" transform="translate(93.6 17.6)"/>
</clipPath>
</defs>
</svg>
